<?xml version="1.0" standalone="no"?><!DOCTYPE svg PUBLIC "-//W3C//DTD SVG 1.1//EN" "http://www.w3.org/Graphics/SVG/1.1/DTD/svg11.dtd"><svg t="1619135530787" class="icon" viewBox="0 0 1024 1024" version="1.1" xmlns="http://www.w3.org/2000/svg" p-id="6431" width="48" height="48" xmlns:xlink="http://www.w3.org/1999/xlink"><defs><style type="text/css"></style></defs><path d="M468 356.533a45.517 45.533 0 1 0 91.034 0 45.517 45.533 0 1 0-91.034 0Z" fill="#2c2c2c" p-id="6432"></path><path d="M506.553 426.038h70.012c40.901-29.785 62.951-44.678 66.149-44.678 3.197 0 6.71 0.767 10.535 2.3 2.474-6.018 4.716-9.027 6.727-9.027 2.01 0 1.005 4.053-3.016 12.158 11.205 4.57 15.637 10.386 13.295 17.446-2.343 7.06-8.011 15.161-17.006 24.305l-54.873 45.897h-57.659l-18.033 96.743c37.005-6.526 57.853-9.789 62.545-9.789 7.037 0 24.577 9.217 18.862 35.499h242.716l-125.299 46.511H274.121c-16.09 16.806-28.543 28.061-37.362 33.766-13.227 8.557-43.467-3.798-39.986-25.367 2.32-14.38 5.507-21.57 9.56-21.57l-33.366-33.34h127.516l60.633-37.802c-9.496-14.167-11.17-24.774-5.022-31.82 6.147-7.047 37.397-38.958 93.748-95.733 11.43-8.488 22.121-11.527 32.074-9.115 9.953 2.41 18.166 3.616 24.637 3.616zM318.761 599.335h91.374l12.238-69.313c-18.514 20.286-29.814 31.757-33.899 34.413-4.085 2.657-10.238 2.657-18.46 0l-51.253 34.9z" fill="#2c2c2c" p-id="6433"></path><path d="M289.804 689.144c-14.728-6.907-19.144-21.306 5.256-16.415 15.75 3.157 23.022 10.044 44.965 15.052 12.049 2.75 27 5.449 53.76 5.449 75.493 0 136.184-7.057 148.05-10.012 11.864-2.955 90.352-16.301 118.335-20.087 27.983-3.785 170.886 1.068 192.655 22.653 0 15.738-6.26 15.738-16.343 15.738-14.798-5.575-82.663-23.184-150.489-15.738-67.825 7.446-92.26 8.8-100.244 12.269-7.985 3.47-79.228 12.793-96.572 12.793-17.345 0-95.646 6.024-141.008-4.203-45.361-10.227-43.637-10.593-58.365-17.5z" fill="#2c2c2c" p-id="6434"></path></svg>